<?xml version="1.0" encoding="UTF-8" standalone="no"?><!DOCTYPE svg PUBLIC "-//W3C//DTD SVG 1.1//EN" "http://www.w3.org/Graphics/SVG/1.1/DTD/svg11.dtd"><svg width="100%" height="100%" viewBox="0 0 525 83" version="1.1" xmlns="http://www.w3.org/2000/svg" xmlns:xlink="http://www.w3.org/1999/xlink" xml:space="preserve" xmlns:serif="http://www.serif.com/" style="fill-rule:evenodd;clip-rule:evenodd;stroke-linejoin:round;stroke-miterlimit:1.41421;"><rect id="creativepark-new-logo-primary-light-hor" x="0" y="0.24" width="524.863" height="82.177" style="fill:none;"/><clipPath id="_clip1"><rect x="0" y="0.24" width="524.863" height="82.177"/></clipPath><g clip-path="url(#_clip1)"><g><path d="M51.073,47.368l0,0.067c-0.047,9.676 -9.557,17.219 -21.024,17.268l-0.122,0c-11.44,0.005 -20.971,-7.458 -21.063,-17.104c-0.003,-0.017 -0.005,-0.049 -0.005,-0.095c0.047,-9.17 8.593,-16.417 19.243,-17.192c2.394,-4.756 6.83,-8.004 11.989,-8.81c0.437,-2.027 2.238,-3.548 4.397,-3.548c2.485,0 4.501,2.015 4.501,4.501c0,2.485 -2.016,4.5 -4.501,4.5c-2.064,0 -3.799,-1.391 -4.33,-3.286c-3.891,0.685 -7.288,2.976 -9.424,6.337c-0.022,0.079 -0.047,0.156 -0.065,0.236c11.139,0.281 20.312,7.64 20.404,17.124l0,0.002Zm-20.335,-36.793c-16.985,0 -30.754,13.768 -30.754,30.753c0,16.986 13.769,30.754 30.754,30.754c16.985,0 30.754,-13.768 30.754,-30.754c0,-16.985 -13.769,-30.753 -30.754,-30.753" style="fill:#80ba3c;fill-rule:nonzero;"/><ellipse cx="27.417" cy="47.09" rx="13.543" ry="12.786" style="fill:#80ba3c;"/></g><g><path d="M284.8,21.453l-0.396,0l-5.381,0l-0.398,0c-0.928,0 -1.68,0.753 -1.68,1.681l0,5.122c0,0.927 0.751,1.679 1.679,1.679l6.177,0c0.928,0 1.68,-0.752 1.68,-1.679l0,-4.196l0,-0.926c0,-0.928 -0.752,-1.681 -1.681,-1.681" style="fill:#fff;fill-rule:nonzero;"/><path d="M129.523,26.332c-0.826,0.654 -2.022,0.608 -2.759,-0.145c-1.284,-1.314 -2.824,-2.319 -4.618,-3.017c-2.385,-0.926 -4.716,-1.392 -6.993,-1.392c-2.914,0 -5.564,0.53 -7.948,1.59c-2.383,1.062 -4.437,2.518 -6.158,4.371c-1.723,1.856 -3.047,4.027 -3.973,6.517c-0.927,2.49 -1.391,5.191 -1.391,8.104c0,3.074 0.449,5.882 1.352,8.424c0.899,2.544 2.184,4.73 3.853,6.557c1.669,1.828 3.668,3.246 6,4.252c2.33,1.006 4.953,1.51 7.867,1.51c3.02,0 5.694,-0.596 8.027,-1.79c1.762,-0.901 3.268,-2.022 4.515,-3.363c0.703,-0.755 1.862,-0.847 2.705,-0.254l4.523,3.179c1.069,0.752 1.194,2.28 0.289,3.223c-2.154,2.24 -4.655,4.041 -7.503,5.401c-3.604,1.721 -7.815,2.583 -12.636,2.583c-4.397,0 -8.436,-0.729 -12.118,-2.186c-3.683,-1.457 -6.848,-3.497 -9.496,-6.12c-2.65,-2.621 -4.716,-5.747 -6.198,-9.376c-1.485,-3.627 -2.226,-7.64 -2.226,-12.04c0,-4.503 0.781,-8.567 2.344,-12.197c1.563,-3.629 3.709,-6.716 6.437,-9.258c2.729,-2.544 5.947,-4.503 9.656,-5.882c3.707,-1.377 7.734,-2.065 12.079,-2.065c1.8,0 3.681,0.174 5.641,0.517c1.96,0.345 3.841,0.873 5.643,1.589c1.799,0.714 3.496,1.603 5.086,2.663c0.922,0.614 1.764,1.3 2.525,2.058c0.886,0.881 0.769,2.356 -0.21,3.131l-4.315,3.416Z" style="fill:#fff;fill-rule:nonzero;"/><path d="M142.674,32.508l4.952,0c1.156,0 2.093,0.937 2.093,2.093l0,4.262l0.16,0c1.058,-2.223 2.542,-4.023 4.45,-5.403c1.907,-1.377 4.132,-2.065 6.674,-2.065c0.37,0 0.768,0.012 1.192,0.039c0.424,0.027 0.795,0.094 1.113,0.199l0,8.741c-0.636,-0.159 -1.18,-0.263 -1.629,-0.317c-0.451,-0.052 -0.887,-0.08 -1.311,-0.08c-2.173,0 -3.921,0.397 -5.245,1.193c-1.325,0.793 -2.358,1.748 -3.099,2.859c-0.743,1.114 -1.246,2.252 -1.51,3.417c-0.265,1.167 -0.397,2.094 -0.397,2.783l0,18.33c0,1.155 -0.937,2.093 -2.093,2.093l-5.35,0c-1.156,0 -2.093,-0.938 -2.093,-2.093l0,-33.958c0,-1.156 0.937,-2.093 2.093,-2.093" style="fill:#fff;fill-rule:nonzero;"/><path d="M193.348,47.766c0,-1.219 -0.173,-2.386 -0.517,-3.499c-0.344,-1.11 -0.887,-2.091 -1.629,-2.938c-0.743,-0.847 -1.682,-1.523 -2.821,-2.028c-1.14,-0.502 -2.476,-0.755 -4.012,-0.755c-2.862,0 -5.286,0.863 -7.272,2.583c-1.986,1.723 -3.087,3.934 -3.298,6.637l19.549,0Zm9.536,4.29l0,1.272c0,0.425 -0.027,0.847 -0.08,1.272l-29.005,0c0.106,1.377 0.463,2.635 1.072,3.773c0.61,1.141 1.417,2.12 2.424,2.941c1.151,0.939 2.477,1.652 3.973,2.143c1.101,0.362 2.264,0.52 3.423,0.519c2.383,0 4.393,-0.439 6.035,-1.311c1.073,-0.572 2.022,-1.285 2.848,-2.14c0.755,-0.782 1.978,-0.857 2.828,-0.177l3.03,2.424c0.971,0.776 1.08,2.227 0.229,3.134c-3.664,3.905 -8.628,5.859 -14.896,5.859c-2.967,0 -5.695,-0.466 -8.185,-1.393c-2.49,-0.923 -4.649,-2.237 -6.476,-3.931c-1.828,-1.696 -3.258,-3.776 -4.291,-6.24c-1.033,-2.462 -1.55,-5.257 -1.55,-8.383c0,-3.072 0.517,-5.866 1.55,-8.383c1.033,-2.516 2.45,-4.663 4.251,-6.438c1.8,-1.773 3.933,-3.15 6.397,-4.132c2.464,-0.979 5.126,-1.47 7.987,-1.47c2.648,0 5.098,0.437 7.35,1.31c2.251,0.875 4.198,2.173 5.841,3.894c1.641,1.723 2.927,3.869 3.854,6.438c0.926,2.571 1.391,5.577 1.391,9.019" style="fill:#fff;fill-rule:nonzero;"/><path d="M233.557,53.249l-2.146,0c-1.537,0 -3.152,0.066 -4.847,0.197c-1.695,0.134 -3.258,0.425 -4.689,0.876c-1.429,0.45 -2.623,1.085 -3.576,1.906c-0.953,0.823 -1.429,1.949 -1.429,3.379c0,0.901 0.198,1.657 0.595,2.263c0.398,0.611 0.913,1.101 1.55,1.472c0.636,0.371 1.351,0.635 2.146,0.794c0.794,0.158 1.588,0.238 2.383,0.238c3.285,0 5.775,-0.873 7.47,-2.622c1.694,-1.748 2.543,-4.133 2.543,-7.151l0,-1.352Zm0.159,12.556l-0.238,0c-0.954,1.696 -2.49,3.086 -4.609,4.172c-2.121,1.084 -4.531,1.629 -7.232,1.629c-1.537,0 -3.139,-0.199 -4.808,-0.595c-1.668,-0.4 -3.206,-1.06 -4.609,-1.987c-1.404,-0.926 -2.569,-2.147 -3.496,-3.657c-0.928,-1.509 -1.391,-3.377 -1.391,-5.601c0,-2.862 0.807,-5.139 2.423,-6.834c1.616,-1.697 3.697,-2.993 6.239,-3.896c2.543,-0.898 5.364,-1.495 8.462,-1.786c3.1,-0.292 6.132,-0.438 9.1,-0.438l0,-0.955c0,-2.382 -0.861,-4.144 -2.583,-5.283c-1.722,-1.138 -3.773,-1.71 -6.158,-1.71c-2.014,0 -3.947,0.425 -5.801,1.273c-1.214,0.554 -2.291,1.188 -3.232,1.902c-0.823,0.624 -1.979,0.489 -2.646,-0.298l-2.38,-2.802c-0.739,-0.871 -0.569,-2.174 0.341,-2.866c1.772,-1.346 3.735,-2.402 5.891,-3.168c2.834,-1.006 5.708,-1.51 8.622,-1.51c3.388,0 6.184,0.477 8.383,1.431c2.198,0.952 3.933,2.199 5.206,3.735c1.27,1.538 2.158,3.258 2.662,5.166c0.503,1.906 0.755,3.813 0.755,5.72l0,21.246c0,1.082 -0.877,1.959 -1.959,1.959l-4.983,0c-1.082,0 -1.959,-0.877 -1.959,-1.959l0,-2.888Z" style="fill:#fff;fill-rule:nonzero;"/><path d="M445.65,53.249l-2.145,0c-1.538,0 -3.153,0.066 -4.847,0.197c-1.696,0.134 -3.259,0.425 -4.69,0.876c-1.429,0.45 -2.622,1.085 -3.576,1.906c-0.953,0.823 -1.429,1.949 -1.429,3.379c0,0.901 0.199,1.657 0.595,2.263c0.398,0.611 0.914,1.101 1.55,1.472c0.636,0.371 1.352,0.635 2.146,0.794c0.794,0.158 1.588,0.238 2.383,0.238c3.285,0 5.775,-0.873 7.47,-2.622c1.695,-1.748 2.543,-4.133 2.543,-7.151l0,-1.352Zm0.159,12.556l-0.238,0c-0.953,1.696 -2.49,3.086 -4.608,4.172c-2.122,1.084 -4.531,1.629 -7.233,1.629c-1.537,0 -3.138,-0.199 -4.807,-0.595c-1.669,-0.4 -3.207,-1.06 -4.61,-1.987c-1.403,-0.926 -2.569,-2.147 -3.496,-3.657c-0.928,-1.509 -1.39,-3.377 -1.39,-5.601c0,-2.862 0.807,-5.139 2.423,-6.834c1.616,-1.697 3.696,-2.993 6.238,-3.896c2.543,-0.898 5.365,-1.495 8.463,-1.786c3.1,-0.292 6.131,-0.438 9.099,-0.438l0,-0.955c0,-2.382 -0.861,-4.144 -2.582,-5.283c-1.723,-1.138 -3.774,-1.71 -6.159,-1.71c-2.014,0 -3.947,0.425 -5.801,1.273c-1.214,0.554 -2.291,1.188 -3.232,1.902c-0.822,0.624 -1.978,0.489 -2.646,-0.298l-2.379,-2.802c-0.74,-0.871 -0.569,-2.174 0.34,-2.866c1.772,-1.346 3.735,-2.402 5.891,-3.168c2.834,-1.006 5.708,-1.51 8.622,-1.51c3.389,0 6.184,0.477 8.383,1.431c2.199,0.952 3.934,2.199 5.206,3.735c1.271,1.538 2.158,3.258 2.662,5.166c0.503,1.906 0.755,3.813 0.755,5.72l0,21.246c0,1.082 -0.877,1.959 -1.959,1.959l-4.983,0c-1.082,0 -1.959,-0.877 -1.959,-1.959l0,-2.888Z" style="fill:#fff;fill-rule:nonzero;"/><path d="M245.874,38.427l0,-4.21c0,-0.943 0.765,-1.709 1.709,-1.709l4.966,0l0,-9.338c0,-0.944 0.765,-1.709 1.709,-1.709l5.959,0c0.944,0 1.709,0.765 1.709,1.709l0,9.338l7.827,0c0.943,0 1.709,0.766 1.709,1.709l0,4.21c0,0.943 -0.766,1.709 -1.709,1.709l-7.827,0l0,17.72c0,1.697 0.304,3.099 0.914,4.214c0.608,1.113 1.973,1.668 4.093,1.668c0.635,0 1.323,-0.067 2.065,-0.2c0.741,-0.131 1.403,-0.33 1.987,-0.596l0.262,6.148c0.034,0.811 -0.494,1.536 -1.28,1.736c-0.519,0.131 -1.08,0.246 -1.684,0.342c-1.166,0.185 -2.278,0.278 -3.337,0.278c-2.543,0 -4.609,-0.357 -6.199,-1.074c-1.59,-0.714 -2.848,-1.694 -3.774,-2.938c-0.928,-1.244 -1.564,-2.675 -1.907,-4.292c-0.345,-1.615 -0.517,-3.351 -0.517,-5.204l0,-17.802l-4.966,0c-0.944,0 -1.709,-0.766 -1.709,-1.709" style="fill:#fff;fill-rule:nonzero;"/><path d="M293.668,32.508l6.14,0c0.823,0 1.559,0.517 1.838,1.292l9.547,26.521l0.16,0l9.625,-26.526c0.28,-0.772 1.014,-1.287 1.836,-1.287l5.843,0c1.381,0 2.326,1.394 1.816,2.677l-13.624,34.235c-0.295,0.743 -1.015,1.232 -1.816,1.232l-7.528,0c-0.796,0 -1.513,-0.484 -1.812,-1.222l-13.837,-34.235c-0.519,-1.286 0.426,-2.687 1.812,-2.687" style="fill:#fff;fill-rule:nonzero;"/><path d="M362.527,47.766c0,-1.219 -0.173,-2.386 -0.518,-3.499c-0.343,-1.11 -0.886,-2.091 -1.628,-2.938c-0.743,-0.847 -1.682,-1.523 -2.821,-2.028c-1.14,-0.502 -2.476,-0.755 -4.012,-0.755c-2.862,0 -5.286,0.863 -7.272,2.583c-1.986,1.723 -3.087,3.934 -3.298,6.637l19.549,0Zm9.536,4.29l0,1.272c0,0.425 -0.027,0.847 -0.08,1.272l-29.005,0c0.106,1.377 0.463,2.635 1.072,3.773c0.61,1.141 1.417,2.12 2.424,2.941c1.006,0.822 2.147,1.47 3.417,1.948c1.273,0.476 2.596,0.714 3.974,0.714c2.385,0 4.396,-0.438 6.04,-1.311c1.641,-0.875 2.992,-2.078 4.053,-3.616l6.356,5.086c-3.762,5.086 -9.218,7.63 -16.37,7.63c-2.967,0 -5.694,-0.466 -8.186,-1.393c-2.49,-0.923 -4.647,-2.237 -6.475,-3.931c-1.827,-1.696 -3.258,-3.776 -4.291,-6.24c-1.033,-2.462 -1.55,-5.257 -1.55,-8.383c0,-3.072 0.517,-5.866 1.55,-8.383c1.033,-2.516 2.449,-4.663 4.251,-6.438c1.8,-1.773 3.933,-3.15 6.397,-4.132c2.463,-0.979 5.125,-1.47 7.987,-1.47c2.648,0 5.097,0.437 7.35,1.31c2.251,0.875 4.197,2.173 5.841,3.894c1.641,1.723 2.927,3.869 3.854,6.438c0.926,2.571 1.391,5.577 1.391,9.019" style="fill:#fff;fill-rule:nonzero;"/><path d="M397.174,38.944c1.644,0 3.205,-0.118 4.689,-0.356c1.481,-0.239 2.806,-0.664 3.973,-1.273c1.167,-0.608 2.094,-1.443 2.78,-2.503c0.691,-1.059 1.034,-2.436 1.034,-4.131c0,-1.643 -0.343,-2.982 -1.034,-4.013c-0.686,-1.035 -1.6,-1.841 -2.742,-2.424c-1.137,-0.584 -2.436,-0.968 -3.89,-1.153c-1.459,-0.186 -2.956,-0.278 -4.493,-0.278l-7.137,0c-0.096,0 -0.172,0.076 -0.172,0.172l0,15.787c0,0.095 0.076,0.172 0.172,0.172l6.82,0Zm-17.006,-22.623c0,-1.067 0.865,-1.932 1.932,-1.932l16.426,0c3.23,0 6.143,0.292 8.739,0.873c2.596,0.585 4.822,1.538 6.675,2.862c1.858,1.325 3.287,3.02 4.295,5.086c1.003,2.065 1.509,4.558 1.509,7.471c0,3.125 -0.583,5.748 -1.75,7.866c-1.167,2.119 -2.741,3.829 -4.727,5.126c-1.987,1.298 -4.304,2.238 -6.954,2.821c-2.648,0.584 -5.457,0.873 -8.422,0.873l-7.537,0c-0.096,0 -0.172,0.077 -0.172,0.172l0,21.181c0,1.067 -0.865,1.932 -1.933,1.932l-6.149,0c-1.067,0 -1.932,-0.865 -1.932,-1.932l0,-52.399Z" style="fill:#fff;fill-rule:nonzero;"/><path d="M463.369,32.508l4.876,0c1.178,0 2.132,0.954 2.132,2.132l0,4.223l0.159,0c1.06,-2.223 2.542,-4.023 4.448,-5.403c1.907,-1.377 4.134,-2.065 6.676,-2.065c0.371,0 0.768,0.012 1.192,0.039c0.423,0.027 0.794,0.094 1.114,0.199l0,8.741c-0.637,-0.159 -1.18,-0.263 -1.63,-0.317c-0.45,-0.052 -0.889,-0.08 -1.311,-0.08c-2.173,0 -3.922,0.397 -5.245,1.193c-1.325,0.793 -2.357,1.748 -3.099,2.859c-0.743,1.114 -1.247,2.252 -1.51,3.417c-0.267,1.167 -0.397,2.094 -0.397,2.783l0,18.291c0,1.176 -0.955,2.132 -2.133,2.132l-5.272,0c-1.178,0 -2.132,-0.956 -2.132,-2.132l0,-33.88c0,-1.178 0.954,-2.132 2.132,-2.132" style="fill:#fff;fill-rule:nonzero;"/><path d="M491.633,10.575l5.271,0c1.177,0 2.132,0.955 2.132,2.134l0,35.851l0.239,0l13.829,-15.346c0.404,-0.45 0.98,-0.705 1.584,-0.705l6.289,0c1.879,0 2.84,2.253 1.54,3.609l-11.745,12.252c-0.754,0.787 -0.794,2.015 -0.093,2.849l13.384,15.927c1.166,1.388 0.179,3.506 -1.634,3.506l-7.007,0c-0.661,0 -1.285,-0.306 -1.688,-0.829l-14.459,-18.719l-0.239,0l0,17.414c0,1.179 -0.955,2.134 -2.132,2.134l-5.271,0c-1.178,0 -2.133,-0.955 -2.133,-2.134l0,-55.809c0,-1.179 0.955,-2.134 2.133,-2.134" style="fill:#fff;fill-rule:nonzero;"/><path d="M276.944,33.988l0,34.587c0,1.146 0.931,2.077 2.077,2.077l5.382,0c1.147,0 2.077,-0.931 2.077,-1.548l0,-35.116c0,-0.869 -0.704,-1.572 -1.572,-1.572l-6.392,0c-0.868,0 -1.572,0.703 -1.572,1.572" style="fill:#fff;fill-rule:nonzero;"/><path d="M276.944,34.101c0,0.931 0.755,1.686 1.687,1.686c0.93,0 1.685,-0.755 1.685,-1.686c0,-0.932 -0.755,-1.686 -1.685,-1.686c-0.932,0 -1.687,0.754 -1.687,1.686" style="fill:#fff;fill-rule:nonzero;"/></g></g></svg>