<?xml version="1.0" encoding="UTF-8" standalone="no"?><!DOCTYPE svg PUBLIC "-//W3C//DTD SVG 1.1//EN" "http://www.w3.org/Graphics/SVG/1.1/DTD/svg11.dtd"><svg width="100%" height="100%" viewBox="0 0 83 83" version="1.1" xmlns="http://www.w3.org/2000/svg" xmlns:xlink="http://www.w3.org/1999/xlink" xml:space="preserve" xmlns:serif="http://www.serif.com/" style="fill-rule:evenodd;clip-rule:evenodd;stroke-linejoin:round;stroke-miterlimit:1.41421;"><rect id="creativepark-favicon-primary" x="0" y="0" width="82.177" height="82.177" style="fill:none;"/><clipPath id="_clip1"><rect x="0" y="0" width="82.177" height="82.177"/></clipPath><g clip-path="url(#_clip1)"><g><path d="M68.256,49.157l0,0.089c-0.063,12.929 -12.768,23.005 -28.088,23.071l-0.163,0c-15.285,0.007 -28.019,-9.964 -28.141,-22.851c-0.004,-0.023 -0.007,-0.066 -0.007,-0.128c0.063,-12.25 11.481,-21.933 25.709,-22.968c3.199,-6.354 9.126,-10.695 16.018,-11.77c0.584,-2.709 2.99,-4.741 5.875,-4.741c3.32,0 6.012,2.692 6.012,6.013c0,3.321 -2.692,6.013 -6.012,6.013c-2.759,0 -5.077,-1.859 -5.785,-4.391c-5.2,0.916 -9.738,3.976 -12.592,8.467c-0.028,0.105 -0.063,0.209 -0.087,0.315c14.883,0.376 27.139,10.207 27.261,22.878l0,0.003Zm-27.168,-49.157c-22.693,0 -41.088,18.395 -41.088,41.088c0,22.693 18.395,41.088 41.088,41.088c22.692,0 41.089,-18.395 41.089,-41.088c0,-22.693 -18.397,-41.088 -41.089,-41.088" style="fill:#80ba3c;fill-rule:nonzero;"/><ellipse cx="36.651" cy="48.785" rx="18.093" ry="17.083" style="fill:#80ba3c;"/></g></g></svg>